<svg version="1.1" xmlns="http://www.w3.org/2000/svg" viewBox="0 0 1774.4168623747667 407.66532331904216" width="1774.4168623747667" height="407.66532331904216" filter="invert(93%) hue-rotate(180deg)">
  <!-- svg-source:excalidraw -->
  
  <defs>
    <style class="style-fonts">
      @font-face {
        font-family: "Virgil";
        src: url("https://excalidraw.com/Virgil.woff2");
      }
      @font-face {
        font-family: "Cascadia";
        src: url("https://excalidraw.com/Cascadia.woff2");
      }
      @font-face {
        font-family: "Assistant";
        src: url("https://excalidraw.com/Assistant-Regular.woff2");
      }
    </style>
    
  </defs>
  <rect x="0" y="0" width="1774.4168623747667" height="407.66532331904216" fill="#ffffff"></rect><g transform="translate(10.788294730387236 10) rotate(0 339 22.5)"><text x="0" y="31.536" font-family="Virgil, Segoe UI Emoji" font-size="36px" fill="#1e1e1e" text-anchor="start" style="white-space: pre;" direction="ltr" dominant-baseline="alphabetic">Flujo de Trabajo Back-end Warehouse</text></g><g stroke-linecap="round"><g transform="translate(10.382468365132809 133.13690528853127) rotate(0 876.204493422857 -4.879119308396355)"><path d="M-0.38 1.07 C291.49 -0.47, 1459.58 -8.74, 1751.7 -10.37 M1.62 0.59 C293.84 -0.7, 1462.39 -7.3, 1754.03 -9.15" stroke="#1e1e1e" stroke-width="2" fill="none"></path></g><g transform="translate(10.382468365132809 133.13690528853127) rotate(0 876.204493422857 -4.879119308396355)"><path d="M1730.59 -0.46 C1740.37 -4.5, 1745.48 -6.44, 1754.03 -9.15 M1730.59 -0.46 C1739.01 -3.77, 1748.33 -6.76, 1754.03 -9.15" stroke="#1e1e1e" stroke-width="2" fill="none"></path></g><g transform="translate(10.382468365132809 133.13690528853127) rotate(0 876.204493422857 -4.879119308396355)"><path d="M1730.49 -17.56 C1740.14 -15.84, 1745.28 -12.01, 1754.03 -9.15 M1730.49 -17.56 C1738.94 -14.25, 1748.3 -10.62, 1754.03 -9.15" stroke="#1e1e1e" stroke-width="2" fill="none"></path></g></g><mask></mask><g transform="translate(907.4586425836526 87.56556494632551) rotate(0 29.5 17.5)"><text x="0" y="24.528" font-family="Virgil, Segoe UI Emoji" font-size="28px" fill="#1e1e1e" text-anchor="start" style="white-space: pre;" direction="ltr" dominant-baseline="alphabetic">Main</text></g><g stroke-linecap="round"><g transform="translate(104.38309754354032 135.42162129204345) rotate(0 827.9976663109147 55.37550745588652)"><path d="M0.46 -0.34 C13.83 17.47, -196.8 87.49, 79.12 105.95 C355.05 124.4, 1393.09 109.44, 1656.01 110.4 M-0.75 -1.56 C12.65 16.48, -197.26 88.33, 78.74 107.18 C354.74 126.03, 1392.17 111.13, 1655.25 111.54" stroke="#2f9e44" stroke-width="2" fill="none"></path></g><g transform="translate(104.38309754354032 135.42162129204345) rotate(0 827.9976663109147 55.37550745588652)"><path d="M1631.81 120.23 C1636.22 120.11, 1640.71 116.52, 1655.25 111.54 M1631.81 120.23 C1638.16 117.01, 1644.71 115.81, 1655.25 111.54" stroke="#2f9e44" stroke-width="2" fill="none"></path></g><g transform="translate(104.38309754354032 135.42162129204345) rotate(0 827.9976663109147 55.37550745588652)"><path d="M1631.71 103.13 C1636.01 106.58, 1640.52 106.58, 1655.25 111.54 M1631.71 103.13 C1638.18 104.55, 1644.75 107.98, 1655.25 111.54" stroke="#2f9e44" stroke-width="2" fill="none"></path></g></g><mask></mask><g transform="translate(888.573825358957 199.99777161891487) rotate(0 52 17.5)"><text x="0" y="24.528" font-family="Virgil, Segoe UI Emoji" font-size="28px" fill="#2f9e44" text-anchor="start" style="white-space: pre;" direction="ltr" dominant-baseline="alphabetic">Develop</text></g><g stroke-linecap="round"><g transform="translate(361.8525895762907 250.93551208772286) rotate(0 87.57818308374732 44.603350721176355)"><path d="M-0.51 0.11 C0.14 13.77, -25.03 68.29, 4.22 83.04 C33.47 97.8, 146.55 87.75, 174.99 88.62 M1.43 -0.87 C2.42 13.48, -22.33 69.42, 6.46 84.51 C35.25 99.59, 146.05 88.9, 174.14 89.63" stroke="#1971c2" stroke-width="2" fill="none"></path></g><g transform="translate(361.8525895762907 250.93551208772286) rotate(0 87.57818308374732 44.603350721176355)"><path d="M150.95 98.95 C158.65 94.49, 165.82 92.67, 174.14 89.63 M150.95 98.95 C157.27 97.76, 162.59 95.39, 174.14 89.63" stroke="#1971c2" stroke-width="2" fill="none"></path></g><g transform="translate(361.8525895762907 250.93551208772286) rotate(0 87.57818308374732 44.603350721176355)"><path d="M150.38 81.86 C158.43 83, 165.79 86.78, 174.14 89.63 M150.38 81.86 C156.81 84.97, 162.28 86.89, 174.14 89.63" stroke="#1971c2" stroke-width="2" fill="none"></path></g></g><mask></mask><g transform="translate(401.82100498464536 370.1130773684405) rotate(0 42 12.5)"><text x="0" y="17.52" font-family="Virgil, Segoe UI Emoji" font-size="20px" fill="#1971c2" text-anchor="start" style="white-space: pre;" direction="ltr" dominant-baseline="alphabetic">task-list</text></g><g transform="translate(740.9345003413955 372.66532331904216) rotate(0 52 12.5)"><text x="0" y="17.52" font-family="Virgil, Segoe UI Emoji" font-size="20px" fill="#e03131" text-anchor="start" style="white-space: pre;" direction="ltr" dominant-baseline="alphabetic">task--form</text></g><g stroke-linecap="round"><g transform="translate(711.7061524745319 255.0828296360127) rotate(0 87.57818308374732 44.603350721176355)"><path d="M-0.94 -0.36 C-0.13 13.47, -24.61 67.33, 4.56 82.45 C33.72 97.57, 145.45 89.06, 174.05 90.35 M0.76 -1.6 C1.39 12.43, -25.96 68.57, 3.31 83.6 C32.58 98.63, 148.03 87.85, 176.37 88.6" stroke="#e03131" stroke-width="2" fill="none"></path></g><g transform="translate(711.7061524745319 255.0828296360127) rotate(0 87.57818308374732 44.603350721176355)"><path d="M153.16 97.9 C158.98 94.58, 164.74 91.13, 176.37 88.6 M153.16 97.9 C161.69 93.95, 172.32 89.76, 176.37 88.6" stroke="#e03131" stroke-width="2" fill="none"></path></g><g transform="translate(711.7061524745319 255.0828296360127) rotate(0 87.57818308374732 44.603350721176355)"><path d="M152.61 80.81 C158.5 82.19, 164.41 83.44, 176.37 88.6 M152.61 80.81 C161.51 83.61, 172.35 86.16, 176.37 88.6" stroke="#e03131" stroke-width="2" fill="none"></path></g></g><mask></mask><g stroke-linecap="round"><g transform="translate(1082.2562358849061 253.34797874668314) rotate(0 87.57818308374726 44.603350721176355)"><path d="M0.34 -1.01 C1.18 12.81, -25.24 67.89, 4.05 82.77 C33.34 97.64, 147.41 87.27, 176.08 88.25 M-0.94 1.07 C0.35 15.08, -23.26 69.42, 6.2 84.08 C35.65 98.75, 147.37 88.18, 175.8 89.07" stroke="#f08c00" stroke-width="2" fill="none"></path></g><g transform="translate(1082.2562358849061 253.34797874668314) rotate(0 87.57818308374726 44.603350721176355)"><path d="M152.57 98.31 C155.9 94.46, 161.9 95.8, 175.8 89.07 M152.57 98.31 C158.43 96.02, 162.67 94.85, 175.8 89.07" stroke="#f08c00" stroke-width="2" fill="none"></path></g><g transform="translate(1082.2562358849061 253.34797874668314) rotate(0 87.57818308374726 44.603350721176355)"><path d="M152.06 81.22 C155.47 81.05, 161.58 86.07, 175.8 89.07 M152.06 81.22 C158.16 82.69, 162.51 85.29, 175.8 89.07" stroke="#f08c00" stroke-width="2" fill="none"></path></g></g><mask></mask><g transform="translate(1098.1055990325683 371.9464117367453) rotate(0 56.5 12.5)"><text x="0" y="17.52" font-family="Virgil, Segoe UI Emoji" font-size="20px" fill="#f08c00" text-anchor="start" style="white-space: pre;" direction="ltr" dominant-baseline="alphabetic">task-delete</text></g><g stroke-linecap="round"><g transform="translate(1419.674853158397 256.48022920779965) rotate(0 85.36208329391775 39.81624982880834)"><path d="M1.02 -0.47 C1.32 11.75, -27.56 61, 0.71 74.27 C28.99 87.53, 142.55 78.35, 170.69 79.12 M0.1 -1.76 C0.34 10.03, -28.53 58.84, -0.22 72.49 C28.08 86.15, 141.68 78.98, 169.91 80.17" stroke="#6741d9" stroke-width="2" fill="none"></path></g><g transform="translate(1419.674853158397 256.48022920779965) rotate(0 85.36208329391775 39.81624982880834)"><path d="M146.5 88.93 C150.54 86.93, 157.31 85.02, 169.91 80.17 M146.5 88.93 C151.93 86.77, 159.53 84.59, 169.91 80.17" stroke="#6741d9" stroke-width="2" fill="none"></path></g><g transform="translate(1419.674853158397 256.48022920779965) rotate(0 85.36208329391775 39.81624982880834)"><path d="M146.34 71.83 C150.55 73.4, 157.35 75.06, 169.91 80.17 M146.34 71.83 C151.65 74.06, 159.28 76.28, 169.91 80.17" stroke="#6741d9" stroke-width="2" fill="none"></path></g></g><mask></mask><g transform="translate(1459.7083475202328 365.0704717186396) rotate(0 45 12.5)"><text x="0" y="17.52" font-family="Virgil, Segoe UI Emoji" font-size="20px" fill="#6741d9" text-anchor="start" style="white-space: pre;" direction="ltr" dominant-baseline="alphabetic">task-edit</text></g></svg>